<svg xmlns="http://www.w3.org/2000/svg" viewBox="0 0 720 160" role="img" aria-labelledby="title desc">
  <title id="title">Drust wordmark</title>
  <desc id="desc">Readable DRUST wordmark with a mouse-inspired circular logo mark.</desc>
  <defs>
    <linearGradient id="amber" x1="0" y1="0" x2="1" y2="1">
      <stop offset="0" stop-color="#e6b36c"/>
      <stop offset="1" stop-color="#d68b37"/>
    </linearGradient>
  </defs>
  <rect width="720" height="160" fill="none"/>
  <g transform="translate(12 14)">
    <circle cx="56" cy="56" r="44" fill="#081015" stroke="url(#amber)" stroke-width="8"/>
    <ellipse cx="47" cy="58" rx="18" ry="12" fill="#d9a35f"/>
    <ellipse cx="65" cy="49" rx="16" ry="12" fill="#d9a35f"/>
    <circle cx="53" cy="41" r="9" fill="#d9a35f"/>
    <path d="M48 31c1-5 4-8 8-8 5 0 8 3 9 8 0 2-.1 4-1.3 5.1-1 .9-2.2 1.3-3.8 1.3-3.8 0-7.2-1.4-8.9-6.4z" fill="#d9a35f"/>
    <path d="M62 53c1.8-.9 4.1-1.2 6.5-.9" fill="none" stroke="#081015" stroke-width="1.2" stroke-linecap="round"/>
    <path d="M61.7 54.7c1.8-.4 3.7-.2 5.6.5" fill="none" stroke="#081015" stroke-width="1.2" stroke-linecap="round"/>
    <path d="M61.5 55.8c1.2.2 2.2.7 3 1.5" fill="none" stroke="#081015" stroke-width="1.2" stroke-linecap="round"/>
    <circle cx="65" cy="48.3" r="1" fill="#081015"/>
    <path d="M35.5 61.7c-1.1 1.2-1.7 2.5-1.8 4.1 0 2.1 1.2 3.8 3.4 4.8 2 .9 4.5 1 7.1.4 2.7-.6 4.7-1.8 6.3-3.7 1.2-1.5 1.9-3.1 2.1-4.9" fill="none" stroke="#d9a35f" stroke-width="1.7" stroke-linecap="round"/>
  </g>
  <text x="154" y="92"
        fill="#d9a35f"
        font-family="Inter, system-ui, -apple-system, BlinkMacSystemFont, 'Segoe UI', sans-serif"
        font-size="76"
        font-weight="800"
        letter-spacing="0.14em">DRUST</text>
  <text x="158" y="124"
        fill="#8fa3ad"
        font-family="Inter, system-ui, -apple-system, BlinkMacSystemFont, 'Segoe UI', sans-serif"
        font-size="18"
        font-weight="600"
        letter-spacing="0.34em">RUST+ / DISCORD / OPERATIONS</text>
  <path d="M154 137h470" stroke="#d9a35f" stroke-opacity="0.22" stroke-width="2"/>
</svg>
